<svg width="58" height="56" viewBox="0 0 58 56" fill="#000" xmlns="http://www.w3.org/2000/svg">
<rect x="0.5" y="0.5" width="57" height="55" stroke="white"/>
<g clip-path="url(#clip0)">
<path d="M29.0546 9.36426L26.9044 10.2507C25.7547 10.7246 25.2105 12.0498 25.6845 13.1908L26.2374 14.5248C25.1579 15.3234 24.2188 16.2713 23.4114 17.3508L22.0773 16.7979C21.5244 16.5697 20.9101 16.5697 20.3572 16.7979C19.8043 17.0261 19.3654 17.4649 19.1373 18.0178L18.2421 20.168C17.7681 21.3177 18.3123 22.6342 19.462 23.1081L21.4367 23.9243C21.8843 24.1086 22.3845 23.898 22.5688 23.4504C22.7531 23.0028 22.5425 22.5025 22.0949 22.3182L20.1202 21.502C19.8569 21.3967 19.734 21.0895 19.8394 20.8262L20.7346 18.676C20.7872 18.5532 20.8838 18.4478 21.0154 18.3952C21.1383 18.3425 21.2787 18.3425 21.4103 18.3952L23.385 19.2114C23.7712 19.3694 24.21 19.2377 24.4382 18.8954C25.3246 17.5614 26.448 16.438 27.782 15.5516C28.1243 15.3234 28.2647 14.8758 28.1067 14.4985L27.2905 12.5238C27.1852 12.2605 27.3081 11.9621 27.5714 11.848L29.7216 10.9616C29.8445 10.9089 29.9849 10.9089 30.1165 10.9616C30.2394 11.0142 30.3447 11.1108 30.3974 11.2424L31.2136 13.2171C31.3716 13.6033 31.7753 13.8227 32.1878 13.7349C33.75 13.419 35.3473 13.4277 36.9095 13.7349C37.3132 13.8139 37.7257 13.5945 37.8837 13.2171L38.6999 11.2424C38.8052 10.9791 39.1124 10.8562 39.3757 10.9616L41.5259 11.8568C41.6487 11.9094 41.7541 12.006 41.8067 12.1376C41.8594 12.2605 41.8594 12.4009 41.8067 12.5325L40.9905 14.5072C40.8325 14.8934 40.9642 15.3322 41.3065 15.5604C42.6405 16.4468 43.7639 17.5702 44.6503 18.9042C44.8785 19.2465 45.3261 19.3869 45.7034 19.2289L47.6781 18.4127C47.8098 18.3601 47.9414 18.3601 48.0731 18.4127C48.1959 18.4654 48.3013 18.5619 48.3539 18.6936L49.2403 20.8438C49.293 20.9667 49.293 21.1071 49.2403 21.2387C49.1877 21.3616 49.0911 21.4669 48.9595 21.5196L46.9848 22.3358C46.5986 22.4938 46.388 22.8975 46.467 23.31C46.7829 24.8722 46.7742 26.4695 46.467 28.0317C46.388 28.4354 46.6074 28.8479 46.9848 29.0059L48.9595 29.8221C49.2228 29.9274 49.3456 30.2345 49.2403 30.4978L48.3451 32.6481C48.2398 32.9114 47.9326 33.0342 47.6694 32.9289L45.6947 32.1127C45.3085 31.9547 44.8697 32.0864 44.6415 32.4286C43.7551 33.7627 42.6317 34.886 41.2977 35.7725C40.9554 36.0006 40.815 36.4482 40.973 36.8256L41.7892 38.8003C41.8418 38.9232 41.8418 39.0636 41.7892 39.1953C41.7365 39.3181 41.64 39.4234 41.5083 39.4761L39.3581 40.3625C39.2352 40.4152 39.0948 40.4152 38.9632 40.3625C38.8403 40.3099 38.735 40.2133 38.6823 40.0817L37.8661 38.107C37.6818 37.6594 37.1728 37.4488 36.7339 37.6331C36.2864 37.8174 36.0757 38.3264 36.26 38.7652L37.0762 40.7399C37.3044 41.2928 37.7432 41.7316 38.2962 41.9598C38.577 42.0739 38.8666 42.1354 39.1562 42.1354C39.4459 42.1354 39.7443 42.0739 40.0163 41.9598L42.1665 41.0734C42.7195 40.8452 43.1583 40.4064 43.3865 39.8535C43.6147 39.3006 43.6147 38.6862 43.3865 38.1333L42.8336 36.7993C43.9131 36.0006 44.8521 35.0528 45.6596 33.9733L46.9936 34.5262C48.1433 35.0001 49.4597 34.456 49.9337 33.3063L50.8289 31.1561C51.3028 30.0064 50.7587 28.6899 49.6089 28.216L48.2749 27.6631C48.468 26.3378 48.468 24.995 48.2749 23.6698L49.6089 23.1169C50.1619 22.8887 50.6007 22.4499 50.8289 21.897C51.057 21.344 51.057 20.7297 50.8289 20.1768L49.9424 18.0266C49.7143 17.4737 49.2754 17.0348 48.7225 16.8066C48.1696 16.5785 47.5553 16.5785 47.0023 16.8066L45.6683 17.3596C44.8697 16.2801 43.9218 15.3322 42.8511 14.5336L43.404 13.1995C43.6322 12.6466 43.6322 12.0323 43.404 11.4794C43.1758 10.9265 42.737 10.4876 42.1841 10.2594L40.0339 9.36426C38.8842 8.89033 37.5677 9.43447 37.0938 10.5842L36.5409 11.9182C35.2156 11.7251 33.8728 11.7251 32.5476 11.9182L31.9947 10.5842C31.7665 10.0313 31.3277 9.59244 30.7748 9.36426C30.2219 9.13607 29.6075 9.13607 29.0546 9.36426Z" fill="white"/>
<path d="M41.6049 25.6094C41.5785 21.7302 38.4102 18.597 34.5399 18.597C34.5223 18.597 34.5048 18.597 34.4872 18.597C32.6003 18.6146 30.8274 19.3606 29.5022 20.7034C28.177 22.0461 27.4573 23.8278 27.4661 25.7147C27.4661 26.1886 27.861 26.5748 28.3349 26.5748H28.3437C28.8264 26.5748 29.2126 26.1798 29.2038 25.6971C29.195 24.2754 29.7392 22.9326 30.7397 21.9145C31.7402 20.8964 33.0742 20.3347 34.496 20.326C34.5048 20.326 34.5223 20.326 34.5311 20.326C37.4536 20.326 39.8408 22.6956 39.8584 25.6181C39.8759 28.5582 37.5063 30.963 34.5662 30.9893C34.0835 30.9893 33.6973 31.3842 33.7061 31.8669C33.7061 32.3409 34.101 32.727 34.575 32.727C34.575 32.727 34.575 32.727 34.5837 32.727C38.4892 32.7007 41.6312 29.5061 41.6049 25.6094Z" fill="white"/>
<path d="M19.8745 51.8069H21.5683C22.6039 51.8069 23.4465 50.9644 23.4465 49.9288V49.0599C24.289 48.8317 25.0964 48.4982 25.8512 48.0594L26.4656 48.6738C26.8166 49.0248 27.2905 49.2267 27.7908 49.2267C28.291 49.2267 28.765 49.0336 29.116 48.6738L30.3096 47.4802C30.6607 47.1291 30.8625 46.6552 30.8625 46.1549C30.8625 45.6547 30.6695 45.1807 30.3096 44.8297L29.6953 44.2153C30.1341 43.4606 30.4676 42.6531 30.6958 41.8106H31.5646C32.6003 41.8106 33.4428 40.9681 33.4428 39.9325V38.2386C33.4428 37.203 32.6003 36.3605 31.5646 36.3605H30.6958C30.4676 35.5179 30.1341 34.7105 29.6953 33.9557L30.3096 33.3414C30.6607 32.9903 30.8625 32.5164 30.8625 32.0161C30.8625 31.5159 30.6695 31.042 30.3096 30.6909L29.116 29.4973C28.765 29.1463 28.291 28.9444 27.7908 28.9444C27.2905 28.9444 26.8166 29.1375 26.4656 29.4973L25.8512 30.1117C25.0964 29.6728 24.289 29.3393 23.4465 29.1111V28.2423C23.4465 27.2067 22.6039 26.3641 21.5683 26.3641H19.8745C18.8389 26.3641 17.9963 27.2067 17.9963 28.2423V29.1111C17.1538 29.3393 16.3464 29.6728 15.5916 30.1117L14.9772 29.4973C14.6262 29.1463 14.1523 28.9444 13.652 28.9444C13.1518 28.9444 12.6778 29.1375 12.3268 29.4973L11.1332 30.6909C10.4047 31.4193 10.4047 32.6129 11.1332 33.3414L11.7475 33.9557C11.3087 34.7105 10.9752 35.5179 10.747 36.3605H9.87815C8.84253 36.3605 8 37.203 8 38.2386V39.9325C8 40.9681 8.84253 41.8106 9.87815 41.8106H10.747C10.9752 42.6531 11.3087 43.4606 11.7475 44.2153L11.1332 44.8297C10.4047 45.5581 10.4047 46.7517 11.1332 47.4802L12.3268 48.6738C12.6778 49.0248 13.1518 49.2267 13.652 49.2267C14.1523 49.2267 14.6262 49.0336 14.9772 48.6738L15.5916 48.0594C16.3464 48.4982 17.1538 48.8317 17.9963 49.0599V49.9288C18.0051 50.9644 18.8476 51.8069 19.8745 51.8069ZM15.9514 46.2427C15.8022 46.1462 15.6355 46.0935 15.4687 46.0935C15.2405 46.0935 15.0211 46.1813 14.8544 46.348L13.7573 47.4451C13.7222 47.4802 13.6871 47.4889 13.6608 47.4889C13.6345 47.4889 13.5993 47.4802 13.5642 47.4451L12.3706 46.2515C12.318 46.1988 12.318 46.111 12.3706 46.0584L13.4677 44.9613C13.7573 44.6717 13.81 44.2066 13.573 43.8643C12.9411 42.9252 12.5111 41.8808 12.2917 40.775C12.2127 40.3713 11.8528 40.0729 11.4404 40.0729H9.88693C9.80794 40.0729 9.7465 40.0114 9.7465 39.9325V38.2386C9.7465 38.1596 9.80794 38.0982 9.88693 38.0982H11.4404C11.8528 38.0982 12.2127 37.8086 12.2917 37.3961C12.5111 36.2902 12.9411 35.2459 13.573 34.3068C13.8012 33.9645 13.7573 33.4994 13.4677 33.2097L12.3706 32.1127C12.318 32.06 12.318 31.9723 12.3706 31.9196L13.5642 30.726C13.5993 30.6909 13.6345 30.6821 13.6608 30.6821C13.6871 30.6821 13.7222 30.6909 13.7573 30.726L14.8544 31.8406C15.144 32.1302 15.6091 32.1829 15.9514 31.9459C16.8905 31.314 17.9349 30.884 19.0407 30.6646C19.4444 30.5856 19.7428 30.2258 19.7428 29.8133V28.2598C19.7428 28.1809 19.8043 28.1194 19.8833 28.1194H21.5771C21.6561 28.1194 21.7175 28.1809 21.7175 28.2598V29.8133C21.7175 30.2258 22.0071 30.5856 22.4196 30.6646C23.5255 30.884 24.5699 31.314 25.5089 31.9459C25.8512 32.1741 26.3164 32.1302 26.606 31.8406L27.703 30.7436C27.7381 30.7085 27.7732 30.6997 27.7996 30.6997C27.8259 30.6997 27.861 30.7085 27.8961 30.7436L29.0897 31.9372C29.1248 31.9723 29.1336 32.0074 29.1336 32.0337C29.1336 32.06 29.1248 32.0951 29.0897 32.1302L27.9927 33.2273C27.703 33.5169 27.6504 33.9821 27.8873 34.3243C28.5192 35.2634 28.9493 36.3078 29.1687 37.4136C29.2477 37.8173 29.6075 38.1157 30.02 38.1157H31.5734C31.6524 38.1157 31.7138 38.1772 31.7138 38.2562V39.95C31.7138 40.029 31.6524 40.0904 31.5734 40.0904H30.02C29.6075 40.0904 29.2477 40.3801 29.1687 40.7925C28.9493 41.8984 28.5192 42.9428 27.8873 43.8818C27.6591 44.2241 27.703 44.6893 27.9927 44.9789L29.0897 46.0759C29.1248 46.111 29.1336 46.1462 29.1336 46.1725C29.1336 46.1988 29.1248 46.2339 29.0897 46.269L27.8961 47.4626C27.861 47.4977 27.8259 47.5065 27.7996 47.5065C27.7732 47.5065 27.7381 47.4977 27.703 47.4626L26.606 46.3656C26.3164 46.0759 25.8512 46.0233 25.5089 46.2602C24.5699 46.8921 23.5255 47.3222 22.4196 47.5416C22.0159 47.6206 21.7175 47.9804 21.7175 48.3929V49.9463C21.7175 50.0253 21.6561 50.0868 21.5771 50.0868H19.8833C19.8043 50.0868 19.7428 50.0253 19.7428 49.9463V48.3929C19.7428 47.9804 19.4532 47.6206 19.0407 47.5416C17.9349 47.3046 16.8905 46.8746 15.9514 46.2427Z" fill="white"/>
<path d="M25.8775 39.0988C25.8775 36.2552 23.5606 33.9382 20.717 33.9382C17.8734 33.9382 15.5652 36.2552 15.5652 39.0988C15.5652 41.9423 17.8822 44.2593 20.7258 44.2593C23.5693 44.2593 25.8775 41.9423 25.8775 39.0988ZM17.303 39.0988C17.303 37.2118 18.8388 35.676 20.7258 35.676C22.6127 35.676 24.1486 37.2118 24.1486 39.0988C24.1486 40.9857 22.6127 42.5216 20.7258 42.5216C18.8388 42.5216 17.303 40.9769 17.303 39.0988Z" fill="white"/>
</g>
<defs>
<clipPath id="clip0">
<rect width="43" height="43" fill="white" transform="translate(8 9)"/>
</clipPath>
</defs>
</svg>
