<svg width="58" height="56" viewBox="0 0 58 56" fill="#000" xmlns="http://www.w3.org/2000/svg">
<rect x="0.5" y="0.5" width="57" height="55" stroke="black"/>
<g clip-path="url(#clip0)">
<path d="M48.8929 12.0714H20.6518C20.5982 12.0714 20.5446 12.1161 20.5446 12.1786V14.6964C20.5446 14.75 20.5893 14.8036 20.6518 14.8036H48.8929C48.9464 14.8036 49 14.7589 49 14.6964V12.1786C49 12.1161 48.9554 12.0714 48.8929 12.0714Z" fill="white"/>
<path d="M20.6518 19.3571H34.7143C34.7679 19.3571 34.8214 19.3125 34.8214 19.25V16.7321C34.8214 16.6786 34.7768 16.625 34.7143 16.625H20.6518C20.5982 16.625 20.5446 16.6696 20.5446 16.7321V19.25C20.5446 19.3125 20.5893 19.3571 20.6518 19.3571Z" fill="white"/>
<path d="M48.8929 26.8572H20.6518C20.5982 26.8572 20.5446 26.9018 20.5446 26.9643V29.4822C20.5446 29.5357 20.5893 29.5893 20.6518 29.5893H48.8929C48.9464 29.5893 49 29.5447 49 29.4822V26.9643C49 26.9018 48.9554 26.8572 48.8929 26.8572Z" fill="white"/>
<path d="M20.6518 34.1429H34.7143C34.7679 34.1429 34.8214 34.0983 34.8214 34.0358V31.5179C34.8214 31.4643 34.7768 31.4108 34.7143 31.4108H20.6518C20.5982 31.4108 20.5446 31.4554 20.5446 31.5179V34.0358C20.5446 34.0983 20.5893 34.1429 20.6518 34.1429Z" fill="white"/>
<path d="M48.8929 41.6429H20.6518C20.5982 41.6429 20.5446 41.6875 20.5446 41.75V44.2679C20.5446 44.3215 20.5893 44.375 20.6518 44.375H48.8929C48.9464 44.375 49 44.3304 49 44.2679V41.75C49 41.6875 48.9554 41.6429 48.8929 41.6429Z" fill="white"/>
<path d="M34.7143 46.2054H20.6518C20.5982 46.2054 20.5446 46.2501 20.5446 46.3126V48.8304C20.5446 48.884 20.5893 48.9376 20.6518 48.9376H34.7143C34.7679 48.9376 34.8214 48.8929 34.8214 48.8304V46.3126C34.8125 46.2501 34.7679 46.2054 34.7143 46.2054Z" fill="white"/>
<path d="M10.6339 16.0536L8.36607 13.7679L6 16.125L8.26786 18.4018L10.625 20.7679L12.9911 18.4197L18.4018 13.0268L16.0536 10.6608L10.6339 16.0536Z" fill="white"/>
<path d="M10.6339 30.8393L8.36607 28.5536L6 30.9107L8.26786 33.1875L10.625 35.5536L12.9911 33.2054L18.4018 27.8125L16.0536 25.4465L10.6339 30.8393Z" fill="white"/>
<path d="M10.6339 45.6251L8.36607 43.3394L6 45.6965L8.26786 47.9733L10.625 50.3394L12.9911 47.9822L18.4018 42.5983L16.0536 40.2322L10.6339 45.6251Z" fill="white"/>
</g>
<defs>
<clipPath id="clip0">
<rect width="43" height="43" fill="white" transform="translate(6 9)"/>
</clipPath>
</defs>
</svg>
